<?xml version="1.0" encoding="UTF-8"?>
<svg width="452px" height="378px" viewBox="0 0 452 378" version="1.1" xmlns="http://www.w3.org/2000/svg" xmlns:xlink="http://www.w3.org/1999/xlink">
    <!-- Generator: Sketch 51.3 (57544) - http://www.bohemiancoding.com/sketch -->
    <title>Group</title>
    <desc>Created with Sketch.</desc>
    <defs>
        <path d="M0.637279279,377.404532 L451.749568,377.404532 L451.749568,0.927123656 L0.637279279,0.927123656 L0.637279279,377.404532 Z M61.7203964,316.2755 L390.668486,316.2755 L390.668486,62.0561559 L61.7203964,62.0561559 L61.7203964,316.2755 Z" id="path-1"></path>
        <path d="M0.637279279,377.404532 L451.749568,377.404532 L451.749568,0.927123656 L0.637279279,0.927123656 L0.637279279,377.404532 Z M61.7203964,316.2755 L390.668486,316.2755 L390.668486,62.0561559 L61.7203964,62.0561559 L61.7203964,316.2755 Z" id="path-3"></path>
        <path d="M0.637279279,377.404532 L451.749568,377.404532 L451.749568,0.927123656 L0.637279279,0.927123656 L0.637279279,377.404532 Z M61.7203964,316.2755 L390.668486,316.2755 L390.668486,62.0561559 L61.7203964,62.0561559 L61.7203964,316.2755 Z" id="path-5"></path>
    </defs>
    <g id="Revamp" stroke="none" stroke-width="1" fill="none" fill-rule="evenodd">
        <g id="Home" transform="translate(-574.000000, -262.000000)">
            <g id="Group" transform="translate(574.000000, 262.000000)">
                <path d="M71.4261802,307.381226 L380.960667,307.381226 L380.960667,70.9504301 L71.4261802,70.9504301 L71.4261802,307.381226 Z M61.1971351,317.618301 L391.189712,317.618301 L391.189712,60.7133548 L61.1971351,60.7133548 L61.1971351,317.618301 Z" id="Fill-342" fill="#FFFFFF"></path>
                <polygon id="Fill-344" fill="#FFFFFF" points="140.616182 174.55334 140.616182 137.054754 131.297245 174.156002 125.307227 174.156002 115.257353 136.918233 115.257353 173.754588 107.202795 174.156002 107.202795 124.663899 121.514092 124.262485 129.766146 155.169324 137.688362 125.39541 150.733245 124.59462 150.733245 173.754588"></polygon>
                <path d="M166.706762,170.291017 C164.220762,167.096006 162.97878,162.896441 162.97878,157.702511 L162.97878,124.595027 L172.763969,124.197689 L172.763969,158.501264 C172.763969,160.231216 172.863735,161.698312 173.063267,162.896441 C173.262798,164.096608 173.761627,165.117463 174.559753,165.961044 C175.359915,166.804624 176.579501,167.226415 178.220546,167.226415 C179.774041,167.226415 180.916258,166.794436 181.649231,165.928441 C182.380168,165.062447 182.834204,164.041592 183.013375,162.863839 C183.19051,161.688124 183.280095,160.190463 183.280095,158.36678 L183.280095,124.996441 L192.199969,124.197689 L192.199969,156.569587 C192.199969,161.276522 191.277645,165.539253 189.437068,169.359818 C187.594456,173.178345 183.746348,175.087608 177.888672,175.087608 C172.918708,175.087608 169.190726,173.488065 166.706762,170.291017" id="Fill-345" fill="#FFFFFF"></path>
                <polygon id="Fill-346" fill="#FFFFFF" points="210.967742 174.55334 210.967742 131.989195 200.785526 131.989195 201.516463 124.197281 230.802805 124.197281 230.002643 131.989195 220.683706 131.989195 220.683706 173.754588"></polygon>
                <path d="M242.91498,170.291017 C240.42898,167.096006 239.186998,162.896441 239.186998,157.702511 L239.186998,124.595027 L248.972187,124.197689 L248.972187,158.501264 C248.972187,160.231216 249.071953,161.698312 249.271485,162.896441 C249.471016,164.096608 249.969845,165.117463 250.767971,165.961044 C251.568133,166.804624 252.787719,167.226415 254.428764,167.226415 C255.982259,167.226415 257.124476,166.794436 257.857449,165.928441 C258.590422,165.062447 259.044458,164.041592 259.221593,162.863839 C259.398728,161.688124 259.488314,160.190463 259.488314,158.36678 L259.488314,124.996441 L268.408187,124.197689 L268.408187,156.569587 C268.408187,161.276522 267.485863,165.539253 265.645286,169.359818 C263.802674,173.178345 259.954566,175.087608 254.09689,175.087608 C249.126926,175.087608 245.398944,173.488065 242.91498,170.291017" id="Fill-347" fill="#FFFFFF"></path>
                <path d="M289.505186,155.436458 L297.824429,155.436458 L293.233168,131.524818 L289.505186,155.436458 Z M276.859366,174.156205 L287.375492,124.796549 L301.28569,124.197485 L312.068537,173.754791 L301.420068,174.156205 L299.622249,163.430098 L287.707366,163.430098 L285.577672,174.156205 L276.859366,174.156205 Z" id="Fill-348" fill="#FFFFFF"></path>
                <polygon id="Fill-349" fill="#FFFFFF" points="320.787454 174.15539 320.787454 124.995423 330.503418 124.19667 330.503418 166.361439 346.87722 166.361439 345.879562 174.15539"></polygon>
                <path d="M115.989715,236.703024 L124.308959,236.703024 L119.717697,212.789346 L115.989715,236.703024 Z M103.343895,255.420733 L113.860022,206.061077 L127.77022,205.462013 L138.553067,255.019319 L127.902562,255.420733 L126.106778,244.696663 L114.191895,244.696663 L112.062202,255.420733 L103.343895,255.420733 Z" id="Fill-350" fill="#FFFFFF"></path>
                <polygon id="Fill-351" fill="#FFFFFF" points="148.602126 255.819906 148.602126 206.260562 158.387315 205.461809 158.387315 255.019116"></polygon>
                <path d="M180.815881,247.627597 C184.187557,247.627597 186.528998,246.172726 187.838169,243.262984 C189.145305,240.357317 189.800908,236.769043 189.800908,232.506312 L189.800908,230.240462 C189.800908,227.177898 189.611557,224.457656 189.23489,222.081774 C188.858223,219.705892 187.992908,217.641769 186.638944,215.887366 C185.28498,214.135 183.255052,213.254742 180.54916,213.254742 L179.417124,213.254742 L179.417124,247.627597 L180.815881,247.627597 Z M169.70116,205.462828 L179.950566,205.462828 C186.516782,205.462828 191.419557,207.549366 194.65889,211.724478 C197.898223,215.899591 199.518908,222.204032 199.518908,230.641876 C199.518908,235.12671 198.908097,239.232543 197.688512,242.965489 C196.46689,246.69436 194.526548,249.703946 191.863413,251.990172 C189.202314,254.278435 185.808241,255.419511 181.681196,255.419511 L169.70116,255.419511 L169.70116,205.462828 Z" id="Fill-352" fill="#FFFFFF"></path>
                <polygon id="Fill-353" fill="#FFFFFF" points="259.183315 256.160191 242.489856 224.91918 242.489856 255.361438 232.505135 255.760815 232.505135 206.20147 244.16755 205.802094 258.953243 235.510804 258.953243 206.602884 268.404523 205.802094 268.404523 255.361438"></polygon>
                <polygon id="Fill-354" fill="#FFFFFF" points="287.383636 256.160191 287.383636 235.97946 273.664825 205.802094 285.936014 205.802094 293.786969 226.583927 302.246699 205.802094 311.850681 205.802094 298.663276 234.844497 298.663276 255.361438"></polygon>
                <path d="M318.975993,248.899081 C316.308786,243.705151 314.975182,237.311054 314.975182,229.71679 C314.975182,225.631333 315.583957,221.700737 316.803542,217.925 C318.023128,214.151301 319.991975,211.031683 322.710083,208.568183 C325.428191,206.102645 328.871128,204.869876 333.038894,204.869876 C336.239542,204.869876 339.047236,205.735871 341.459939,207.46786 C343.874677,209.199849 345.729506,211.453473 347.024425,214.228731 C348.32138,217.006027 348.966804,219.903543 348.966804,222.92128 L338.145272,223.387898 C338.145272,221.391016 337.764533,219.114978 337.003056,216.561823 C336.239542,214.006629 334.714551,212.73107 332.428083,212.73107 C330.039813,212.73107 328.388587,214.395817 327.474407,217.725312 C326.560227,221.056844 326.102119,225.054683 326.102119,229.71679 C326.102119,235.489409 326.611128,240.118914 327.62711,243.603269 C328.643092,247.089661 330.599723,248.833876 333.494966,248.833876 C335.52693,248.833876 336.974551,247.778382 337.839867,245.66943 C338.703146,243.560478 339.26102,240.995097 339.515524,237.97736 L349.044173,238.774075 C349.044173,241.973161 348.435398,244.937919 347.215813,247.668349 C345.996227,250.396742 344.165831,252.587199 341.726659,254.227495 C339.289524,255.871866 336.314876,256.693032 332.808822,256.693032 C326.254822,256.693032 321.6432,254.097086 318.975993,248.899081" id="Fill-355" fill="#FFFFFF"></path>
                <g id="Group-370">
                    <g id="Group-359">
                        <mask id="mask-2" fill="white">
                            <use xlink:href="#path-1"></use>
                        </mask>
                        <g id="Clip-358"></g>
                        <polygon id="Fill-357" fill="#FFFFFF" mask="url(#mask-2)" points="461.663638 363.59365 -3.04733514 6.61844032 -9.27556937 14.7363758 455.435404 371.713623"></polygon>
                    </g>
                    <g id="Group-362">
                        <mask id="mask-4" fill="white">
                            <use xlink:href="#path-3"></use>
                        </mask>
                        <g id="Clip-361"></g>
                        <polygon id="Fill-360" fill="#FFFFFF" mask="url(#mask-4)" points="461.097823 13.9740968 454.843121 5.8745 -8.71138378 364.355522 -2.45464505 372.457156"></polygon>
                    </g>
                    <mask id="mask-6" fill="white">
                        <use xlink:href="#path-5"></use>
                    </mask>
                    <g id="Clip-364"></g>
                    <polygon id="Fill-363" fill="#FFFFFF" mask="url(#mask-6)" points="-55.9563784 194.284366 508.345261 194.284366 508.345261 184.04729 -55.9563784 184.04729"></polygon>
                    <polygon id="Fill-365" fill="#FFFFFF" mask="url(#mask-6)" points="221.078901 471.537129 231.307946 471.537129 231.307946 -93.2075108 221.078901 -93.2075108"></polygon>
                    <polygon id="Fill-366" fill="#FFFFFF" mask="url(#mask-6)" points="371.854292 446.929637 89.5232829 -73.4801532 80.5321477 -68.5979812 362.865193 451.811809"></polygon>
                    <polygon id="Fill-367" fill="#FFFFFF" mask="url(#mask-6)" points="373.637859 -67.5809978 364.681337 -72.5263366 78.7506162 445.911024 87.7051027 450.8584"></polygon>
                    <polygon id="Fill-368" fill="#FFFFFF" mask="url(#mask-6)" points="497.093312 280.768905 -41.2590486 87.9251473 -44.7060577 97.5631581 493.646303 290.404878"></polygon>
                    <polygon id="Fill-369" fill="#FFFFFF" mask="url(#mask-6)" points="496.832903 96.7929323 493.357389 87.1651097 -44.4452414 281.537094 -40.9697279 291.166954"></polygon>
                </g>
            </g>
        </g>
    </g>
</svg>