<svg xmlns="http://www.w3.org/2000/svg" viewBox="0 0 206 180"><defs><clipPath id="clip-path"><path d="M160.55 45.56v88.88H45.45V45.56h115.1m21.37-21.37H24.08v131.62h157.84V24.19z" fill="none"/></clipPath><style>.cls-3{fill:#fff}.cls-4{fill:#9cc}</style></defs><path fill="#114146" d="M-2-5h210v190H-2z"/><path class="cls-3" d="M160.73 134.91H45.27V45.09h115.46zm-111.88-3.58h108.3V48.67H48.85z"/><path class="cls-3" d="M73.06 84.89V71.78l-3.26 13h-2.1l-3.52-13v12.83l-2.81.14v-17.3l5-.14 2.89 10.8L72 67.71l4.57-.28v17.18zM82.19 83.4a7 7 0 01-1.31-4.4V67.43l3.43-.14v12a9.68 9.68 0 00.1 1.54 2 2 0 00.52 1.07 1.71 1.71 0 001.28.44 1.48 1.48 0 001.2-.45 2.09 2.09 0 00.48-1.08 11.16 11.16 0 00.11-1.58V67.57l3.13-.28V78.6a10.26 10.26 0 01-1 4.48c-.65 1.33-2 2-4 2a4.64 4.64 0 01-3.94-1.68zM97.67 84.89V70h-3.56l.26-2.72h10.24l-.28 2.72h-3.26v14.6zM108.85 83.4a7 7 0 01-1.3-4.4V67.43l3.42-.14v12a9.68 9.68 0 00.1 1.54 2 2 0 00.53 1.07 1.7 1.7 0 001.28.44 1.5 1.5 0 001.2-.45 2.26 2.26 0 00.48-1.08 11.16 11.16 0 00.09-1.57V67.57l3.12-.28V78.6a10.12 10.12 0 01-1 4.48q-1 2-4 2a4.64 4.64 0 01-3.92-1.68zM120.73 84.75l3.68-17.25 4.86-.21 3.78 17.32-3.73.14-.63-3.75h-4.17l-.74 3.75zm4.42-6.54h2.91l-1.6-8.36zM136.1 84.75V67.57l3.4-.28V82h5.73l-.35 2.72zM60 113.16l3.7-17.25 4.86-.21 3.78 17.3-3.73.14-.61-3.73h-4.19l-.74 3.75zm4.42-6.54h2.91l-1.61-8.36zM75.85 113.3V96l3.42-.28V113zM83.23 95.7h3.59A6.12 6.12 0 0192 97.89q1.69 2.19 1.7 6.61a14 14 0 01-.64 4.31A6.86 6.86 0 0191 112a5.27 5.27 0 01-3.56 1.2h-4.2zm3.89 14.74a2.48 2.48 0 002.46-1.53 9.09 9.09 0 00.69-3.76v-.79a18.53 18.53 0 00-.2-2.85 4.75 4.75 0 00-.91-2.17 2.52 2.52 0 00-2.16-.92h-.4v12z"/><path class="cls-4" d="M114.54 113.42l-5.84-10.92v10.64l-3.49.14V96l4.08-.14 5.17 10.38V96.1l3.31-.28v17.32zM124.41 113.42v-7l-4.8-10.55h4.29l2.75 7.26 3-7.26H133L128.36 106v7.17zM135.46 110.88a14.57 14.57 0 01-1.4-6.7 13.56 13.56 0 01.64-4.13 7.47 7.47 0 012.07-3.27 5.19 5.19 0 013.61-1.29 4.9 4.9 0 013 .91 6 6 0 011.95 2.36 7.17 7.17 0 01.68 3l-3.79.16a8.33 8.33 0 00-.4-2.38 1.6 1.6 0 00-1.6-1.34c-.84 0-1.41.58-1.73 1.75a15.94 15.94 0 00-.48 4.19 17.68 17.68 0 00.53 4.85c.36 1.22 1 1.83 2 1.83a1.56 1.56 0 001.52-1.11 8.86 8.86 0 00.59-2.68l3.33.27a7.46 7.46 0 01-.64 3.11 5.26 5.26 0 01-1.92 2.3 5.48 5.48 0 01-3.12.86 5 5 0 01-4.84-2.69z"/><g clip-path="url(#clip-path)"><path class="cls-3" transform="rotate(-52.49 103.006 90.004)" d="M101.21-12.49h3.58v204.97h-3.58z"/><path class="cls-3" transform="rotate(-37.7 102.991 89.991)" d="M.51 88.21h204.97v3.58H.51z"/><path class="cls-3" d="M4.28 88.21h197.44v3.58H4.28z"/><path class="cls-3" d="M101.21-8.72h3.58v197.44h-3.58z"/><path class="cls-3" transform="rotate(-28.5 102.994 89.993)" d="M101.21-13.52h3.58v207.03h-3.58z"/><path class="cls-3" transform="rotate(-61.11 102.993 89.994)" d="M-.52 88.21h207.03v3.58H-.52z"/><path class="cls-3" transform="rotate(-70.31 102.993 90.004)" d="M101.21-10.03h3.58v200.07h-3.58z"/><path class="cls-3" transform="rotate(-19.86 102.988 90)" d="M2.97 88.21h200.07v3.58H2.97z"/></g></svg>