<svg id="logo" data-name="logo" xmlns="http://www.w3.org/2000/svg" viewBox="0 0 180 180"><defs/><path d="M41 71.3V50.53l-5.15 20.55h-3.32L27 50.46v20.4l-4.46.22V43.67l7.93-.22L35 60.57l4.39-16.49 7.23-.44v27.22zM55.47 68.94a11.07 11.07 0 01-2.06-7v-18.3l5.42-.23v19a15.26 15.26 0 00.17 2.44 3.08 3.08 0 00.83 1.69 2.66 2.66 0 002 .7 2.39 2.39 0 001.9-.71 3.42 3.42 0 00.75-1.7 16.91 16.91 0 00.15-2.49V43.86l4.94-.45v17.93a16.13 16.13 0 01-1.53 7.09q-1.53 3.16-6.4 3.17a7.38 7.38 0 01-6.17-2.66zM80 71.3V47.73h-5.64l.41-4.32H91l-.44 4.32h-5.17v23.13zM97.71 68.94a11.07 11.07 0 01-2.06-7v-18.3l5.42-.23v19a15.26 15.26 0 00.17 2.44 3.08 3.08 0 00.83 1.69 2.64 2.64 0 002 .7 2.36 2.36 0 001.9-.71 3.35 3.35 0 00.76-1.7 16.91 16.91 0 00.15-2.49V43.86l4.94-.45v17.93a16.13 16.13 0 01-1.53 7.09q-1.53 3.16-6.4 3.17a7.38 7.38 0 01-6.18-2.66zM116.53 71.08l5.82-27.33 7.72-.34 6 27.45-5.9.22-1-5.94h-6.6l-1.18 5.94zm7-10.36h4.61l-2.54-13.25zM140.87 71.08V43.86l5.39-.45v23.36h9.07l-.55 4.31zM20.36 116.09l5.82-27.34 7.71-.33 6 27.45-5.9.22-1-5.94h-6.6l-1.18 5.94zm7-10.37H32l-2.57-13.24zM45.44 116.31V88.86l5.42-.44v27.45zM57.13 88.42h5.69q5.45 0 8.15 3.47t2.69 10.47a22.05 22.05 0 01-1 6.83 11 11 0 01-3.23 5 8.41 8.41 0 01-5.65 1.9h-6.65zm6.16 23.35a3.92 3.92 0 003.9-2.42 14.55 14.55 0 001.08-5.95v-1.26a29.08 29.08 0 00-.27-4.52 7.49 7.49 0 00-1.44-3.43 4 4 0 00-3.37-1.45h-.63v19zM106.73 116.5l-9.25-17.3v16.85l-5.54.23V88.83l6.47-.22 8.19 16.45v-16l5.24-.44v27.44zM122.36 116.5v-11.18l-7.6-16.71h6.8l4.35 11.51 4.69-11.51h5.32l-7.31 16.08v11.36zM139.87 112.48a23.06 23.06 0 01-2.22-10.63 21 21 0 011-6.53 11.57 11.57 0 013.27-5.18 8.17 8.17 0 015.72-2 7.8 7.8 0 014.67 1.44 9.45 9.45 0 013.09 3.75 11.32 11.32 0 011.07 4.81l-6 .26a13.41 13.41 0 00-.63-3.78 2.53 2.53 0 00-2.53-2.12c-1.33 0-2.24.92-2.75 2.76a25.22 25.22 0 00-.76 6.64 28.46 28.46 0 00.84 7.69c.57 1.93 1.65 2.9 3.26 2.9a2.46 2.46 0 002.4-1.75 14.45 14.45 0 00.93-4.26l5.28.44a11.84 11.84 0 01-1 4.92 8.38 8.38 0 01-3 3.64 8.64 8.64 0 01-4.94 1.36c-3.67-.05-6.22-1.49-7.7-4.36z" fill="#fff"/><path fill="#fff" stroke="#fff" stroke-miterlimit="10" stroke-width="6.79" d="M20.36 136.59h134.97"/></svg>