<svg id="Layer_1" data-name="Layer 1" xmlns="http://www.w3.org/2000/svg" xmlns:xlink="http://www.w3.org/1999/xlink" viewBox="0 0 206 180"><defs><style>.cls-1{fill:none;}.cls-2{fill:#114146;}.cls-3{fill:#fff;}.cls-4{fill:#9cc;}.cls-5{clip-path:url(#clip-path);}</style><clipPath id="clip-path"><path class="cls-1" d="M160.55,45.56v88.88H45.45V45.56h115.1m21.37-21.37H24.08V155.81H181.92V24.19Z"/></clipPath></defs><rect class="cls-2" x="-2" y="-5" width="210" height="190"/><path class="cls-3" d="M160.73,134.91H45.27V45.09H160.73ZM48.85,131.33h108.3V48.67H48.85Z"/><path class="cls-3" d="M73.06,84.89V71.78l-3.26,13H67.7l-3.52-13V84.61l-2.81.14V67.45l5-.14,2.89,10.8L72,67.71l4.57-.28V84.61Z"/><path class="cls-3" d="M82.19,83.4A7,7,0,0,1,80.88,79V67.43l3.43-.14v12a9.68,9.68,0,0,0,.1,1.54,2,2,0,0,0,.52,1.07,1.71,1.71,0,0,0,1.28.44,1.48,1.48,0,0,0,1.2-.45,2.09,2.09,0,0,0,.48-1.08A11.16,11.16,0,0,0,88,79.23V67.57l3.13-.28V78.6a10.26,10.26,0,0,1-1,4.48c-.65,1.33-2,2-4,2A4.64,4.64,0,0,1,82.19,83.4Z"/><path class="cls-3" d="M97.67,84.89V70H94.11l.26-2.72h10.24L104.33,70h-3.26v14.6Z"/><path class="cls-3" d="M108.85,83.4a7,7,0,0,1-1.3-4.4V67.43l3.42-.14v12a9.68,9.68,0,0,0,.1,1.54,2,2,0,0,0,.53,1.07,1.7,1.7,0,0,0,1.28.44,1.5,1.5,0,0,0,1.2-.45,2.26,2.26,0,0,0,.48-1.08,11.16,11.16,0,0,0,.09-1.57V67.57l3.12-.28V78.6a10.12,10.12,0,0,1-1,4.48q-1,2-4,2A4.64,4.64,0,0,1,108.85,83.4Z"/><path class="cls-3" d="M120.73,84.75l3.68-17.25,4.86-.21,3.78,17.32-3.73.14L128.69,81h-4.17l-.74,3.75Zm4.42-6.54h2.91l-1.6-8.36Z"/><path class="cls-3" d="M136.1,84.75V67.57l3.4-.28V82h5.73l-.35,2.72Z"/><path class="cls-3" d="M60,113.16,63.7,95.91l4.86-.21L72.34,113l-3.73.14L68,109.41H63.81l-.74,3.75Zm4.42-6.54h2.91l-1.61-8.36Z"/><path class="cls-3" d="M75.85,113.3V96l3.42-.28V113Z"/><path class="cls-3" d="M83.23,95.7h3.59A6.12,6.12,0,0,1,92,97.89q1.69,2.19,1.7,6.61a14,14,0,0,1-.64,4.31A6.86,6.86,0,0,1,91,112a5.27,5.27,0,0,1-3.56,1.2h-4.2Zm3.89,14.74a2.48,2.48,0,0,0,2.46-1.53,9.09,9.09,0,0,0,.69-3.76v-.79a18.53,18.53,0,0,0-.2-2.85,4.75,4.75,0,0,0-.91-2.17A2.52,2.52,0,0,0,87,98.42h-.4v12Z"/><path class="cls-4" d="M114.54,113.42,108.7,102.5v10.64l-3.49.14V96l4.08-.14,5.17,10.38V96.1l3.31-.28v17.32Z"/><path class="cls-4" d="M124.41,113.42v-7l-4.8-10.55h4.29l2.75,7.26,3-7.26H133L128.36,106v7.17Z"/><path class="cls-4" d="M135.46,110.88a14.57,14.57,0,0,1-1.4-6.7,13.56,13.56,0,0,1,.64-4.13,7.47,7.47,0,0,1,2.07-3.27,5.19,5.19,0,0,1,3.61-1.29,4.9,4.9,0,0,1,3,.91,6,6,0,0,1,1.95,2.36,7.17,7.17,0,0,1,.68,3l-3.79.16a8.33,8.33,0,0,0-.4-2.38,1.6,1.6,0,0,0-1.6-1.34c-.84,0-1.41.58-1.73,1.75a15.94,15.94,0,0,0-.48,4.19,17.68,17.68,0,0,0,.53,4.85c.36,1.22,1,1.83,2,1.83a1.56,1.56,0,0,0,1.52-1.11,8.86,8.86,0,0,0,.59-2.68l3.33.27a7.46,7.46,0,0,1-.64,3.11,5.26,5.26,0,0,1-1.92,2.3,5.48,5.48,0,0,1-3.12.86A5,5,0,0,1,135.46,110.88Z"/><g class="cls-5"><rect class="cls-3" x="101.21" y="-12.49" width="3.58" height="204.97" transform="translate(-31.11 116.91) rotate(-52.49)"/><rect class="cls-3" x="0.51" y="88.21" width="204.97" height="3.58" transform="translate(-33.53 81.77) rotate(-37.7)"/><rect class="cls-3" x="4.28" y="88.21" width="197.44" height="3.58"/><rect class="cls-3" x="101.21" y="-8.72" width="3.58" height="197.44"/><rect class="cls-3" x="101.21" y="-13.52" width="3.58" height="207.03" transform="translate(-30.46 60.05) rotate(-28.5)"/><rect class="cls-3" x="-0.52" y="88.21" width="207.03" height="3.58" transform="translate(-25.56 136.69) rotate(-61.11)"/><rect class="cls-3" x="101.21" y="-10.03" width="3.58" height="200.07" transform="translate(-16.45 156.65) rotate(-70.31)"/><rect class="cls-3" x="2.97" y="88.21" width="200.07" height="3.58" transform="translate(-24.45 40.34) rotate(-19.86)"/></g></svg>